<?xml version="1.0" standalone="no"?>
<!DOCTYPE svg PUBLIC "-//W3C//DTD SVG 20010904//EN"
 "http://www.w3.org/TR/2001/REC-SVG-20010904/DTD/svg10.dtd">
<svg version="1.0" xmlns="http://www.w3.org/2000/svg"
 width="504.000000pt" height="520.000000pt" viewBox="0 0 504.000000 520.000000"
 preserveAspectRatio="xMidYMid meet">

<g transform="translate(0.000000,520.000000) scale(0.100000,-0.100000)"
fill="#000000" stroke="none">
<path d="M568 4863 l-3 -328 -283 -3 -282 -2 0 -2260 0 -2260 2225 0 2225 0 0
315 0 315 -1948 3 -1947 2 2243 3 2242 2 0 2270 0 2270 -2235 0 -2235 0 -2
-327z m997 -1755 c32 -73 83 -187 113 -253 30 -66 75 -165 100 -220 24 -55 59
-131 77 -170 18 -38 63 -135 100 -215 37 -80 69 -147 72 -150 3 -3 3 184 -1
415 -3 231 -3 489 1 573 l6 152 184 0 183 0 0 -920 0 -920 -132 1 c-73 1 -164
4 -201 8 l-69 6 -49 115 c-27 63 -65 149 -83 190 -88 193 -150 330 -176 385
-57 121 -148 321 -163 355 -8 19 -22 44 -31 55 -14 18 -15 -29 -9 -520 3 -298
3 -553 -1 -568 l-6 -27 -185 0 -185 0 -2 916 c-2 504 -1 918 1 920 2 2 93 4
201 4 l197 0 58 -132z m1492 80 c12 -29 44 -111 73 -183 28 -71 65 -166 82
-210 17 -44 34 -84 38 -88 18 -20 105 171 232 506 l10 27 229 0 c126 0 229 -2
229 -4 0 -4 -70 -157 -110 -241 -124 -257 -310 -665 -310 -678 0 -3 59 -126
131 -273 71 -148 145 -300 164 -339 18 -38 56 -118 84 -176 28 -58 51 -111 51
-117 0 -9 -59 -12 -230 -12 -135 0 -230 4 -230 9 0 5 -13 38 -29 73 -16 35
-39 90 -52 123 -34 93 -140 339 -150 349 -5 5 -11 7 -14 4 -5 -5 -48 -111
-125 -313 -21 -55 -52 -131 -68 -170 l-29 -70 -204 -3 c-215 -3 -249 0 -249
22 0 12 37 95 146 324 184 386 205 432 240 515 l32 79 -43 91 c-23 51 -50 106
-58 122 -9 17 -36 73 -61 125 -24 52 -90 190 -146 305 -56 116 -106 220 -111
233 l-9 22 234 0 233 0 20 -52z"/>
</g>
</svg>
